<svg width="16" height="17" viewBox="0 0 16 17" fill="none" xmlns="http://www.w3.org/2000/svg">
<ellipse cx="8" cy="8.41905" rx="8" ry="7.99522" fill="#E34E1F"/>
<path fill-rule="evenodd" clip-rule="evenodd" d="M8 9.41846C7.44772 9.41846 7 9.08287 7 8.6689L7 5.17099C7 4.75703 7.44772 4.42144 8 4.42144C8.55228 4.42144 9 4.75703 9 5.17099L9 8.6689C9 9.08287 8.55228 9.41846 8 9.41846Z" fill="white"/>
<path fill-rule="evenodd" clip-rule="evenodd" d="M8 12.4165C7.44772 12.4165 7 12.0809 7 11.667L7 11.1673C7 10.7533 7.44772 10.4177 8 10.4177C8.55228 10.4177 9 10.7533 9 11.1673L9 11.667C9 12.0809 8.55228 12.4165 8 12.4165Z" fill="white"/>
</svg>
