<?xml version="1.0" encoding="UTF-8"?>
<svg id="_圖層_1" data-name="圖層 1" xmlns="http://www.w3.org/2000/svg" viewBox="0 0 139.47 139.47">
  <defs>
    <style>
      .cls-1 {
        stroke: #f7ed8a;
        stroke-miterlimit: 10;
        stroke-width: 3px;
      }

      .cls-1, .cls-2 {
        fill: #fff48a;
      }

      .cls-3 {
        fill: #258794;
      }

      .cls-3, .cls-4, .cls-2 {
        stroke-width: 0px;
      }

      .cls-4 {
        fill: #1d2939;
      }
    </style>
  </defs>
  <g>
    <path class="cls-4" d="M90.56,15.68c-.4.02-.81.03-1.22.02l-1.38,3.18c-.27.62-.74.79-1.39.51l-1.01-.44.17-.84c.29.17.59.32.88.45.3.13.51.05.64-.23l1.15-2.66c-.52-.04-1.05-.09-1.57-.15l.14-.88c.59.11,1.19.19,1.77.23l1.1-2.53-1.41-.61.33-.77,1.41.61.88-2.04.8.35-.88,2.04,1.11.48-.33.77-1.11-.48-.96,2.23c.42,0,.83,0,1.23-.03l-.35.8ZM90.32,21.17l-.78-.34,2.79-6.46c-.45.3-.91.57-1.38.81l.1-.95c1.42-.8,2.61-1.84,3.61-3.11l.7.49c-.42.52-.88,1.01-1.36,1.46l1.99.86c.08-.66.1-1.33.09-1.99l.85.12c-.02.78-.08,1.46-.17,2.07l-.34-.02,2.1.91-.33.77-1.92-.83-.65,1.5,1.7.73-.32.75-1.7-.73-.64,1.49,1.7.73-.32.74-1.7-.73-.71,1.64,2.04.88-.33.76-4.78-2.07-.22.51ZM90.87,19.91l1.96.85.71-1.64-1.96-.85-.71,1.64ZM91.9,17.53l1.96.85.64-1.49-1.96-.85-.64,1.49ZM93.51,13.79l-.65,1.5,1.96.85.65-1.5-1.96-.85Z"/>
    <path class="cls-4" d="M109.2,19.94l-1.37,1.83,1.94,1.45c-2.36,3.16-3.87,5.08-4.52,5.76-.58.6-1.23.64-1.94.11-.18-.14-.49-.38-.92-.73l.3-.74c.37.31.7.58.99.8.37.27.74.21,1.13-.19.47-.49,1.75-2.12,3.84-4.88l-1.29-.96-.35.46c-2,2.64-4.05,4.15-6.1,4.53l-.18-.81c.06-.02.11-.02.17-.04-1.36-.78-2.88-1.72-4.55-2.8l.37-.68c.74.49,1.46.96,2.14,1.39l.64-.86-1.73-1.29.43-.58,1.73,1.29.5-.66-1.72-1.29,2.19-2.93,1.72,1.29.46-.62-1.96-1.47.43-.58,1.96,1.47.5-.67c-.57-.36-1.16-.78-1.76-1.23l.22-.7c1.63,1.22,3.09,2.1,4.36,2.65l-.09.76c-.62-.25-1.3-.6-2.04-1.03l-.54.72,1.91,1.43-.43.58-1.91-1.43-.46.62,1.73,1.29-2.19,2.93-1.73-1.29-.5.66,1.74,1.3-.43.58-1.74-1.3-.6.8c.67.41,1.3.78,1.9,1.11l-.38.51c1.79-.46,3.54-1.83,5.29-4.12l.35-.46-.95-.71.47-.62.95.71,1.37-1.83.64.48ZM101.4,21.15l-1.13-.85-.53.71,1.13.85.53-.71ZM101.76,20.67l.53-.71-1.13-.85-.53.71,1.13.85ZM103.12,22.44l-1.14-.86-.53.71,1.14.86.53-.71ZM102.34,21.1l1.14.86.53-.71-1.14-.86-.53.71Z"/>
    <path class="cls-4" d="M110.48,34.47c1.08.63,2.05.94,2.89.89l-2.98-3.57c-.57-.23-1.15-.51-1.72-.86l.16-.8c1.22.78,2.42,1.28,3.6,1.48l.4.74c-.36-.02-.74-.07-1.13-.15l2.82,3.38-.5.42c-2.04.5-4.57-.83-7.59-3.97l.29-.76c1.05,1.11,2.02,1.99,2.92,2.64-.04-.53-.11-1.11-.23-1.76l.74.08c.18.83.28,1.58.33,2.23ZM115.38,36.86l-.54-.65.92-.77-5.36-6.42-.89.75-.54-.65,1.43-1.19,6.44,7.71-1.46,1.22ZM118.8,33.21l-1.89,1.58-5.56-6.66,1.89-1.58,5.56,6.66ZM114.42,29.02l-1.19-1.43-.84.7,1.19,1.43.84-.7ZM117.06,27.6l-1.42,1.18-.54-.65.37-.31-2.12-2.54.59-.49,2.12,2.54.46-.38.54.65ZM116.07,31l-1.16-1.39-.84.7,1.16,1.39.84-.7ZM117.76,33.03l-1.19-1.43-.84.7,1.19,1.43.84-.7ZM118.88,29.78l-.44.37,2.25,2.69-.59.49-2.25-2.69-.39.32-.54-.65,1.42-1.18.54.65Z"/>
    <path class="cls-4" d="M117.49,40.91c-1.17.23-2.27.29-3.26.17l.09-.87c.98.13,1.96.09,2.96-.14l.22.84ZM115.43,44.14c-.34-.69-.15-1.21.56-1.57l2.16-1.07.39.79-2,.99c-.32.16-.4.4-.24.72l1.15,2.31c.12.24.27.38.43.43.2.06.66-.05,1.35-.33l.11.85c-.93.37-1.55.49-1.88.35-.26-.11-.49-.37-.7-.79l-1.33-2.69ZM118.62,45.54l-.73-.4c.3-.52.61-1.17.9-1.93l.67.42c-.29.79-.57,1.44-.84,1.92ZM118.68,41.36l-.38-.77,2.88-1.43c-1.09-.04-2.17-.21-3.24-.54l.59-.65c1.17.47,2.39.69,3.65.67l-.87-1.75.71-.35.88,1.77,1.19-.59.38.77-1.19.59.71,1.43-.71.35-.71-1.43-.51.25c-.12.76-.29,1.55-.5,2.38l-.86-.11c.31-.77.54-1.42.69-1.94l-2.72,1.35ZM119.49,49.85l-.79-.43c.54-.78,1.09-1.72,1.66-2.84l.71.43c-.56,1.17-1.08,2.12-1.58,2.84ZM127.28,44.91l-5.34,2.64-2.04-4.13,5.34-2.64,2.04,4.13ZM123.16,46.01l-1.3-2.62-.9.45,1.3,2.62.9-.45ZM123.8,45.69l.87-.43-1.3-2.62-.87.43,1.3,2.62ZM125.31,44.94l.9-.45-1.3-2.62-.9.45,1.3,2.62Z"/>
    <path class="cls-4" d="M131.11,59.49l-.82.19-.88-3.84c-.53-.1-1.05-.24-1.57-.42l-.54.12c-.67,2.12-1.51,4.01-2.51,5.67l-.82-.42c.96-1.42,1.77-3.1,2.44-5.05l-6.48,1.48-.2-.87,6.69-1.53c-1.61-.79-3.16-1.96-4.62-3.51l.6-.72c2.13,2.32,4.39,3.75,6.79,4.3l-1.2-5.24.82-.19,2.29,10.02Z"/>
    <path class="cls-4" d="M125.97,63.47h.79s-.18,10.63-.18,10.63h-.79s.08-4.75.08-4.75l-1.36-.02-.06,3.45h-.77s.06-3.47.06-3.47l-1.59-.03c-.06.57-.11,1.27-.12,2.06-.02,1.03-.02,1.91,0,2.62l-.81-.25c.01-.86.04-1.63.06-2.31.03-1.98.21-3.32.52-4.02.29-.61.82-1.15,1.62-1.62-.88-.48-1.6-1.09-2.18-1.82l.72-.55c.87,1.12,2.06,1.89,3.55,2.31l-.16.81c-.44-.13-.86-.27-1.25-.43-.85.49-1.39,1.06-1.62,1.68-.06.19-.13.41-.18.66l3.59.06.08-5ZM131.67,72.56l-4.16-.07.12-7.29,4.16.07-.12,7.29ZM129.23,71.67l.09-5.59-.98-.02-.09,5.59.98.02ZM129.94,71.68l1,.02.09-5.59-1-.02-.09,5.59Z"/>
    <path class="cls-4" d="M121.13,81.04c.12,1.24.46,2.2.99,2.85l1.12-4.51c-.15-.59-.26-1.23-.32-1.9l.74-.35c.09,1.44.39,2.7.93,3.78l-.36.76c-.2-.31-.39-.64-.54-1l-1.06,4.27-.63-.16c-1.61-1.35-2.03-4.17-1.29-8.46l.78-.21c-.27,1.5-.41,2.8-.4,3.92.41-.34.83-.75,1.28-1.23l.37.65c-.57.64-1.1,1.16-1.6,1.58ZM122.1,86.41l.2-.81,1.16.29,2.01-8.11-1.13-.28.2-.81,1.8.45-2.41,9.75-1.84-.46ZM127.06,87.01l-2.39-.59,2.08-8.42,2.39.59-2.08,8.42ZM126.59,86.06l.45-1.8-1.06-.26-.45,1.8,1.06.26ZM127.23,83.5l.44-1.76-1.06-.26-.44,1.76,1.06.26ZM127.85,81l.45-1.8-1.06-.26-.45,1.8,1.06.26ZM129.87,85.05l-.56-.14-.84,3.4-.75-.18.84-3.4-.49-.12.2-.81,1.79.44-.2.82ZM130.56,82.29l-1.79-.44.2-.81.47.12.8-3.21.75.18-.8,3.21.58.14-.2.82Z"/>
    <path class="cls-4" d="M104.43,106.18l.63-.58,4.75,5.19c-.1-.53-.15-1.07-.18-1.6l.83.48c.15,1.62.61,3.14,1.36,4.56l-.73.44c-.3-.6-.56-1.21-.78-1.84l-1.6,1.47c.57.34,1.17.64,1.78.89l-.46.73c-.7-.34-1.3-.67-1.82-1.01l.16-.31-1.69,1.55-.57-.62,1.54-1.41-1.1-1.2-1.36,1.25-.55-.6,1.36-1.25-1.09-1.19-1.36,1.25-.54-.59,1.36-1.25-1.21-1.32-1.64,1.5-.56-.61,3.84-3.52-.37-.41ZM105.36,107.2l-1.58,1.44,1.21,1.32,1.58-1.44-1.21-1.32ZM107.11,109.11l-1.58,1.44,1.09,1.19,1.58-1.44-1.09-1.19ZM109.34,108.65c.14-.38.3-.75.48-1.13l-2.34-2.56c-.45-.5-.42-1,.1-1.47l.81-.75.7.5c-.27.2-.54.41-.77.62-.24.22-.26.45-.05.68l1.95,2.13c.25-.46.51-.92.78-1.37l.74.49c-.34.49-.66,1.01-.93,1.52l1.86,2.04,1.13-1.04.57.62-1.13,1.04,1.5,1.64-.65.59-1.5-1.64-.89.82-.57-.62.89-.82-1.64-1.79c-.17.38-.33.76-.47,1.13l-.59-.65ZM109.85,112.11l-1.1-1.2-1.58,1.44,1.1,1.2,1.58-1.44Z"/>
    <path class="cls-4" d="M97.82,123.91l-1.11-1.99-2.12,1.18c-1.92-3.45-3.05-5.61-3.41-6.48-.31-.78-.08-1.38.69-1.81.2-.11.55-.29,1.04-.54l.55.57c-.43.21-.82.4-1.13.58-.4.22-.5.59-.29,1.11.25.63,1.22,2.46,2.88,5.5l1.4-.78-.28-.5c-1.59-2.91-2.13-5.39-1.64-7.42l.81.17c0,.06-.02.11-.03.17,1.27-.93,2.75-1.92,4.41-3l.47.62c-.75.47-1.47.94-2.14,1.38l.52.93,1.89-1.05.35.63-1.89,1.05.4.72,1.88-1.04,1.78,3.2-1.88,1.04.37.67,2.14-1.19.35.63-2.14,1.19.41.73c.56-.37,1.18-.74,1.84-1.11l.55.49c-1.78.99-3.18,1.96-4.2,2.9l-.66-.39c.48-.46,1.08-.94,1.78-1.44l-.44-.79-2.09,1.16-.35-.63,2.09-1.16-.37-.67-1.89,1.05-1.78-3.2,1.89-1.05-.4-.72-1.9,1.06-.35-.63,1.9-1.05-.48-.87c-.65.44-1.25.87-1.79,1.28l-.31-.56c-.31,1.82.22,3.98,1.6,6.51l.28.5,1.04-.58.38.68-1.04.58,1.11,1.99-.7.39ZM98.03,117.35l1.25-.69-.43-.78-1.25.69.43.78ZM99.57,117.18l-1.25.69.43.78,1.25-.69-.43-.78ZM99.91,116.3l1.24-.69-.43-.78-1.24.69.43.78ZM100.2,116.83l.43.78,1.24-.69-.43-.78-1.24.69Z"/>
    <path class="cls-4" d="M79.86,122.61l.81-.23.32,1.16,8.06-2.24-.31-1.12.81-.23.5,1.79-9.68,2.69-.51-1.83ZM81.78,127.24l-.66-2.37,8.36-2.33.66,2.37-8.36,2.33ZM84.87,128.72l-.15-.56-3.38.94-.21-.74,3.38-.94-.14-.49.81-.23.5,1.78-.81.23ZM84.06,119.13c-1.02.72-1.69,1.48-2,2.26l4.48-1.25c.44-.42.94-.83,1.49-1.21l.67.47c-1.21.79-2.16,1.67-2.83,2.67l-.84.06c.17-.32.37-.65.6-.97l-4.25,1.18-.17-.62c.39-2.06,2.64-3.82,6.74-5.29l.57.58c-1.44.5-2.64,1.02-3.61,1.58.5.18,1.06.35,1.7.51l-.38.64c-.83-.18-1.55-.39-2.17-.62ZM82.37,126.36l1.79-.5-.29-1.05-1.79.5.29,1.05ZM84.92,125.65l1.75-.49-.29-1.05-1.75.49.29,1.05ZM87.4,124.96l1.79-.5-.29-1.05-1.79.5.29,1.05ZM87.61,127.96l-.5-1.78.81-.23.13.46,3.19-.89.21.74-3.19.89.16.58-.81.23Z"/>
    <path class="cls-4" d="M66.35,121.03l.71-.54c.49.81,1.12,1.7,1.91,2.68l-.68.47c-.84-.99-1.49-1.85-1.95-2.61ZM67.66,130.16l-.22-5.95,4.61-.17.22,5.95-4.61.17ZM68.35,125.95l2.93-.11-.04-1.01-2.93.11.04,1.01ZM68.37,126.66l.04.97,2.93-.11-.04-.97-2.93.11ZM68.43,128.35l.04,1.01,2.93-.11-.04-1.01-2.93.11ZM73.22,119.67c.77-.03,1.17.37,1.2,1.16l.09,2.41-.88.03-.08-2.23c-.01-.36-.2-.53-.56-.52l-2.58.1c-.26,0-.45.09-.57.21-.14.16-.23.62-.25,1.37l-.83-.25c.05-1,.19-1.62.45-1.85.21-.19.54-.3,1.01-.31l3-.11ZM70.64,122l.67-.5c.35.49.82,1.04,1.39,1.62l-.66.44c-.6-.59-1.07-1.11-1.4-1.56ZM74.43,123.77l.86-.03.12,3.21c.48-.98,1.08-1.89,1.82-2.73l.35.8c-.9.87-1.61,1.9-2.11,3.06l1.96-.07.03.79-1.98.07.05,1.33-.86.03-.05-1.33-1.59.06-.03-.79,1.6-.06-.02-.56c-.64-.42-1.29-.9-1.96-1.43l.45-.74c.57.6,1.07,1.08,1.48,1.42l-.11-3.03ZM75.32,122.87c.27-1.16.66-2.19,1.18-3.05l.76.44c-.52.84-.88,1.75-1.09,2.75l-.86-.15Z"/>
    <path class="cls-4" d="M52.79,127.69l.16-.82,3.86.77c.31-.44.65-.86,1.02-1.26l.11-.54c-1.66-1.48-3.05-3.01-4.15-4.6l.71-.58c.91,1.45,2.11,2.88,3.61,4.29l1.29-6.52.87.17-1.34,6.73c1.38-1.15,3.08-2.08,5.09-2.78l.41.84c-2.99,1-5.21,2.48-6.69,4.44l5.27,1.05-.16.82-10.07-2Z"/>
    <path class="cls-4" d="M40.64,122.9l1.74-3.78,6.62,3.05-1.74,3.78-6.62-3.05ZM51.25,121.35l-.33.72-9.64-4.44.33-.72,4.3,1.98.57-1.23-3.14-1.45.32-.7,3.14,1.45.67-1.45c-.5-.28-1.12-.61-1.84-.94-.94-.43-1.74-.79-2.39-1.06l.56-.64c.78.36,1.48.69,2.09.99,1.8.83,2.95,1.53,3.47,2.1.44.51.72,1.22.83,2.14.8-.61,1.65-1.02,2.55-1.26l.22.88c-1.37.34-2.56,1.12-3.55,2.31l-.68-.47c.29-.35.59-.68.9-.97-.11-.97-.41-1.69-.88-2.16-.15-.13-.32-.28-.53-.43l-1.5,3.26,4.54,2.09ZM42.14,121.67l-.42.9,5.08,2.34.42-.9-5.08-2.34ZM42.44,121.03l5.08,2.34.41-.89-5.08-2.34-.41.89Z"/>
    <path class="cls-4" d="M29.96,116.07l.36-.45-2.75-2.17.47-.6,2.75,2.17.31-.4.66.52-1.14,1.45-.66-.52ZM29.33,112.71l1.52-1.93,6.82,5.36-1.52,1.93-6.82-5.36ZM30.39,112.67l1.46,1.15.67-.86-1.46-1.15-.67.86ZM31.92,108.42l.66.52-.74.94,6.57,5.17.72-.91.66.52-1.15,1.46-7.89-6.21,1.17-1.49ZM32.2,117.83l1.14-1.45.66.52-.3.38,2.6,2.05-.47.6-2.6-2.05-.37.47-.66-.52ZM32.46,114.3l1.42,1.12.67-.86-1.42-1.12-.68.86ZM37.21,109.75c-1.18-.4-2.19-.49-3.01-.27l3.65,2.87c.6.11,1.23.26,1.86.49v.82c-1.34-.51-2.62-.75-3.81-.7l-.55-.64c.36-.05.74-.09,1.13-.08l-3.46-2.72.4-.51c1.89-.91,4.64-.14,8.25,2.3l-.13.8c-1.26-.87-2.39-1.53-3.41-1.98.15.51.34,1.06.59,1.67l-.74.07c-.35-.78-.6-1.48-.78-2.11ZM34.49,115.89l1.46,1.15.67-.86-1.46-1.15-.67.86Z"/>
    <path class="cls-4" d="M19.89,79.88l.19.83-6.85,1.61c.51.18,1,.39,1.48.63l-.82.49c-1.49-.66-3.03-1-4.65-1.04l-.03-.86c.67.03,1.33.11,1.99.22l-.5-2.12c-.58.33-1.13.71-1.65,1.12l-.41-.75c.64-.45,1.22-.8,1.77-1.09l.19.29-.52-2.23.82-.19.48,2.03,1.59-.37-.42-1.8.79-.19.42,1.8,1.58-.37-.42-1.8.78-.18.42,1.8,1.74-.41-.51-2.16.81-.19,1.19,5.07.54-.13ZM15.34,82.96c.26.31.51.63.75.97l3.38-.79c.65-.15,1.08.12,1.24.81l.25,1.08-.78.37c-.04-.34-.1-.67-.17-.97-.07-.32-.26-.44-.57-.37l-2.82.66c.28.44.56.89.81,1.35l-.79.41c-.26-.54-.56-1.07-.87-1.56l-2.69.63.35,1.5-.82.19-.35-1.5-2.16.51-.2-.85,2.16-.51-.28-1.18.82-.19.28,1.18,2.36-.56c-.25-.34-.5-.66-.76-.97l.85-.2ZM12.06,81.72l1.59-.37-.49-2.08-1.59.37.49,2.08ZM16.02,80.79l-.49-2.08-1.58.37.49,2.08,1.58-.37ZM18.55,80.2l-.49-2.08-1.74.41.49,2.08,1.74-.41Z"/>
    <path class="cls-4" d="M7.7,65.31l2.28.04.04-2.42c3.95.06,6.38.17,7.31.29.83.12,1.24.62,1.22,1.51,0,.23-.02.62-.06,1.17l-.77.19c.03-.48.06-.91.07-1.27,0-.46-.26-.72-.81-.81-.67-.1-2.74-.18-6.2-.26l-.03,1.61h.58c3.31.09,5.73.86,7.24,2.3l-.55.61s-.08-.07-.13-.11c.17,1.56.29,3.34.39,5.32l-.77.1c-.03-.89-.08-1.74-.13-2.55l-1.07-.02-.04,2.16h-.72s.04-2.17.04-2.17h-.83s-.04,2.13-.04,2.13l-3.66-.06.04-2.15h-.77s-.04,2.43-.04,2.43h-.72s.04-2.46.04-2.46h-.84c.04.66.05,1.38.04,2.13l-.7.23c.03-2.04-.11-3.73-.41-5.08l.67-.37c.16.65.28,1.41.36,2.26h.9s.04-2.37.04-2.37h.72s-.04,2.4-.04,2.4h.77s.04-2.15.04-2.15l3.66.06-.04,2.16h.83s.04-2.16.04-2.16h.72s-.04,2.18-.04,2.18l1,.02c-.06-.78-.13-1.51-.22-2.19h.64c-1.42-1.16-3.56-1.79-6.44-1.86h-.58s-.02,1.18-.02,1.18h-.78s.02-1.2.02-1.2l-2.28-.04v-.8ZM12.64,70.91h-.89s-.02,1.4-.02,1.4h.89s.02-1.4.02-1.4ZM12.65,70.19l.02-1.43h-.89s-.02,1.41-.02,1.41h.89ZM13.24,70.92l-.02,1.42h.89s.02-1.4.02-1.4h-.89ZM13.28,68.78l-.02,1.43h.89s.02-1.41.02-1.41h-.89Z"/>
    <path class="cls-4" d="M9.12,54.57l1.8.43-.2.82-.47-.11-.78,3.22-.75-.18.78-3.22-.58-.14.2-.82ZM9.79,51.81l.56.14.82-3.4.75.18-.82,3.4.49.12-.2.82-1.8-.44.2-.82ZM12.59,49.83l2.39.58-2.04,8.43-2.39-.58,2.04-8.43ZM11.83,55.84l-.44,1.81,1.06.26.44-1.81-1.06-.26ZM12.44,53.34l-.43,1.76,1.06.26.43-1.76-1.06-.26ZM13.06,50.77l-.44,1.81,1.06.26.44-1.81-1.06-.26ZM17.56,50.41l-.2.82-1.17-.28-1.97,8.13,1.13.27-.2.82-1.81-.44,2.36-9.76,1.84.45ZM18.55,55.77c-.13-1.24-.47-2.2-1-2.85l-1.09,4.51c.15.59.27,1.23.33,1.89l-.74.35c-.09-1.44-.41-2.7-.95-3.77l.36-.77c.2.31.39.64.55,1l1.04-4.28.63.15c1.61,1.34,2.05,4.16,1.33,8.46l-.78.22c.27-1.5.4-2.8.38-3.92-.4.35-.82.75-1.27,1.23l-.37-.65c.56-.64,1.1-1.17,1.59-1.59Z"/>
    <path class="cls-4" d="M19.19,45.11l-.39.77-2.86-1.46c.62.9,1.12,1.87,1.5,2.92l-.87-.08c-.32-1.22-.87-2.33-1.64-3.33l-.89,1.74-.71-.36.9-1.76-1.19-.61.39-.77,1.19.61.73-1.42.71.36-.73,1.42.5.26c.68-.35,1.42-.69,2.2-1.02l.42.76c-.81.21-1.46.41-1.96.6l2.7,1.38ZM16.91,36.09l5.3,2.71-2.1,4.1-5.3-2.71,2.1-4.1ZM18.11,37.64l-.9-.46-1.33,2.61.9.46,1.33-2.61ZM19.62,38.41l-.87-.44-1.33,2.61.87.44,1.33-2.61ZM20.25,38.74l-1.33,2.61.9.46,1.33-2.61-.9-.46ZM19.54,46.32c.88.8,1.58,1.65,2.08,2.52l-.76.45c-.48-.86-1.1-1.62-1.87-2.29l.55-.68ZM23.35,46.05c-.35.68-.89.84-1.59.48l-2.15-1.1.4-.78,1.99,1.02c.32.16.56.09.73-.23l1.17-2.3c.12-.23.14-.44.09-.6-.07-.2-.43-.5-1.07-.88l.62-.6c.85.53,1.32.96,1.4,1.29.06.27,0,.62-.22,1.03l-1.37,2.67ZM22.58,42.66l.12.83c-.6.07-1.31.21-2.09.43l-.07-.79c.81-.23,1.5-.39,2.04-.46ZM25.52,39.4l.13.89c-.94.03-2.03.15-3.27.36l-.08-.82c1.27-.25,2.34-.39,3.22-.43Z"/>
    <path class="cls-4" d="M26.34,24.32l.64.55-2.56,2.99c.23.48.44.99.6,1.51l.42.36c2.11-.73,4.12-1.18,6.05-1.37l.16.91c-1.71.08-3.54.43-5.51,1.05l5.06,4.32-.58.67-5.22-4.46c.33,1.76.31,3.7-.06,5.8l-.93-.05c.59-3.09.39-5.76-.6-8.01l-3.49,4.09-.64-.55,6.67-7.81Z"/>
    <path class="cls-4" d="M36.44,16.07l2.45,3.36-5.89,4.3-2.45-3.36,5.89-4.3ZM36.78,17.98l-.59-.8-4.52,3.29.59.8,4.52-3.29ZM32.62,26.09l-.47-.64,8.58-6.25.47.64-3.83,2.79.8,1.1,2.79-2.03.45.62-2.79,2.03.94,1.29c.49-.3,1.08-.68,1.72-1.15.83-.61,1.53-1.13,2.09-1.57l.29.8c-.7.51-1.32.95-1.88,1.34-1.6,1.17-2.78,1.83-3.52,2.01-.66.14-1.41.04-2.27-.32.15.99.09,1.94-.14,2.84l-.87-.24c.37-1.37.27-2.78-.29-4.23l.74-.36c.16.43.31.85.41,1.26.9.38,1.68.47,2.32.29.19-.06.4-.14.63-.25l-2.11-2.9-4.04,2.95ZM37.2,18.55l-4.52,3.29.58.79,4.52-3.29-.58-.79Z"/>
    <path class="cls-4" d="M45.01,11.14l.71,1.71-.78.32-.18-.44-3.06,1.27-.29-.71,3.06-1.27-.23-.55.78-.32ZM50.88,11.14l.94,2.27-8.01,3.33-.94-2.27,8.01-3.33ZM53.35,15.49l-.78.32-.46-1.11-7.72,3.21.45,1.07-.78.32-.71-1.72,9.27-3.86.73,1.75ZM45.58,14.09l-1.72.71.42,1.01,1.72-.71-.42-1.01ZM49.61,19.47c.92-.84,1.5-1.68,1.71-2.49l-4.29,1.78c-.39.47-.83.94-1.33,1.39l-.72-.39c1.11-.93,1.94-1.92,2.48-3l.83-.16c-.13.34-.28.69-.48,1.03l4.07-1.69.25.6c-.13,2.09-2.15,4.12-6.04,6.07l-.64-.5c1.37-.67,2.5-1.34,3.39-2.01-.52-.12-1.09-.22-1.75-.3l.3-.68c.85.08,1.59.2,2.22.35ZM47.96,13.1l-1.67.7.42,1.01,1.67-.7-.42-1.01ZM47.63,10.05l.22.53,3.23-1.35.29.71-3.23,1.35.19.47-.78.32-.71-1.71.78-.32ZM50.4,12.08l-1.72.71.42,1.01,1.72-.71-.42-1.01Z"/>
  </g>
  <rect class="cls-4" x="68.98" y="5.73" width="1" height="13"/>
  <rect class="cls-4" x="118.36" y="90.71" width="1" height="13" transform="translate(265.25 50.85) rotate(123.15)"/>
  <rect class="cls-4" x="21.36" y="92.71" width="1" height="13" transform="translate(92.98 26.66) rotate(56.85)"/>
  <circle class="cls-3" cx="69.73" cy="68.73" r="42.43"/>
  <g>
    <path class="cls-2" d="M61.86,54.88v1.13h-10.69v-1.13h5.8c.62-1.49,1.31-3.84,1.67-5.55l1.26.24c-.47,1.75-1.14,3.85-1.73,5.31h3.68ZM61.37,48.8h-9.68v-1.13h9.68v1.13ZM54.34,54.46c-.17-1.32-.65-3.35-1.08-4.88l1.13-.28c.47,1.56.94,3.53,1.14,4.86l-1.19.3ZM56.13,47.62c-.1-.53-.36-1.34-.58-1.96l1.1-.28c.23.6.5,1.39.64,1.9l-1.16.34Z"/>
    <path class="cls-2" d="M67.97,52.29c.61.97,1.34,2.27,1.66,3.07l-1.02.55c-.12-.3-.28-.7-.48-1.12-2.93.98-3.36,1.16-3.65,1.38-.07-.34-.26-.88-.46-1.14.23-.12.53-.35.53-.79v-8.16h4.76v5.72h-3.62v2.67l1.97-.6c-.22-.4-.42-.78-.64-1.13l.95-.47ZM65.69,47.08v1.33h2.51v-1.33h-2.51ZM68.2,50.81v-1.4h-2.51v1.4h2.51ZM74.27,53.01c0,.55-.1.88-.44,1.04-.37.19-.91.2-1.73.2-.04-.3-.17-.77-.32-1.06.53.02,1.04.02,1.19.01.17-.01.22-.06.22-.22v-5.8h-1.85v9.29h-1.12v-10.31h4.05v6.84Z"/>
    <path class="cls-2" d="M77.87,49.37c-.26.32-.53.61-.79.86-.13-.3-.4-.73-.62-.98,1-.86,2.07-2.35,2.65-3.87l.84.52c-.08.2-.18.41-.28.6.77.77,1.62,1.67,2.01,2.27l-.56.89c-.4-.62-1.16-1.5-1.9-2.27-.35.62-.74,1.22-1.14,1.74h2.55v.95h-2.77v-.7ZM81.57,51.44c-.43,1.16-1.18,2.43-1.85,3.31.34.34.61.65.84.94l-.74.7c-.52-.72-1.58-1.8-2.43-2.51l.68-.61c.29.22.6.49.92.78.46-.56.95-1.34,1.28-2.05h-3.26v-.92h3.72l.17-.06.67.43ZM84.19,54.89c-.6.61-1.61,1.27-2.43,1.62-.18-.2-.49-.55-.73-.73.84-.35,1.79-.97,2.24-1.48l.92.59ZM83.79,47.93c.06-.31.13-.67.17-.98h-2.34v-.95h5.84v.95h-2.29c-.11.34-.2.68-.31.98h2.28v6.25h-5.1v-6.25h1.75ZM86.09,48.78h-3.06v.97h3.06v-.97ZM86.09,50.55h-3.06v1h3.06v-1ZM86.09,52.33h-3.06v1.01h3.06v-1.01ZM85.77,54.37c.64.42,1.49,1.06,1.93,1.5l-.88.64c-.38-.43-1.22-1.12-1.88-1.58l.83-.55Z"/>
  </g>
  <g>
    <path class="cls-1" d="M52.73,89.79h-2.83v-19.62l-4.87,2.18v-2.67l7.26-3.17h.45v23.28Z"/>
    <path class="cls-1" d="M74.93,79.91c0,3.42-.5,5.97-1.5,7.66-1,1.69-2.56,2.54-4.69,2.54s-3.61-.81-4.63-2.44c-1.02-1.62-1.55-4.06-1.59-7.32v-3.98c0-3.38.5-5.91,1.5-7.58,1-1.67,2.56-2.5,4.69-2.5s3.64.79,4.64,2.37c1,1.58,1.53,3.97,1.58,7.18v4.06ZM72.11,75.88c0-2.45-.27-4.26-.81-5.42-.54-1.16-1.41-1.74-2.59-1.74s-2.01.57-2.55,1.71-.82,2.86-.84,5.16v4.77c0,2.44.28,4.27.84,5.5.56,1.23,1.42,1.84,2.58,1.84s1.99-.58,2.53-1.73c.54-1.16.82-2.92.84-5.3v-4.79Z"/>
    <path class="cls-1" d="M93.14,79.91c0,3.42-.5,5.97-1.5,7.66-1,1.69-2.56,2.54-4.69,2.54s-3.61-.81-4.63-2.44c-1.02-1.62-1.55-4.06-1.59-7.32v-3.98c0-3.38.5-5.91,1.5-7.58,1-1.67,2.56-2.5,4.69-2.5s3.64.79,4.64,2.37c1,1.58,1.53,3.97,1.58,7.18v4.06ZM90.32,75.88c0-2.45-.27-4.26-.81-5.42-.54-1.16-1.41-1.74-2.59-1.74s-2.01.57-2.55,1.71-.82,2.86-.84,5.16v4.77c0,2.44.28,4.27.84,5.5.56,1.23,1.42,1.84,2.58,1.84s1.99-.58,2.53-1.73c.54-1.16.82-2.92.84-5.3v-4.79Z"/>
  </g>
</svg>