<svg width="56" height="56" viewBox="0 0 56 56" fill="none" xmlns="http://www.w3.org/2000/svg">
<path d="M47.6933 39.3401C47.8337 38.9263 47.9139 38.5026 47.954 38.079C48.4855 33.7239 44.2335 32.7189 44.1532 32.6992C42.5387 32.1376 40.9241 31.9799 40.7937 31.9701C46.3194 30.9158 45.8982 27.2701 45.8982 27.2701C46.0085 22.9151 41.6361 21.9593 38.8783 22.0086C34.6462 22.0776 32.791 22.0086 32.791 22.0086C21.3685 21.7229 9.98619 13.3773 8.21114 12.0275C8.12089 11.9585 7.99052 12.0275 8.00055 12.1457C8.57217 18.0083 10.989 21.378 18.721 22.3338C25.9215 23.2205 28.3082 25.4375 28.92 26.1765C28.9601 26.2257 28.8999 26.2848 28.8498 26.2553C26.8742 25.0039 22.602 23.8511 18.1995 23.4472C12.373 22.6786 12.4532 22.0283 12.1423 22.0086C12.0922 22.0086 12.042 22.0382 12.032 22.0973C11.9819 22.3732 12.032 23.2599 13.8472 24.9941C16.0835 27.1223 19.9144 27.4574 23.665 27.6051C26.5432 27.7135 28.1779 28.5806 28.7796 28.9747C28.8397 29.0141 28.7996 29.1127 28.7294 29.093C27.8068 28.886 25.0289 28.354 22.0505 28.4919C18.7611 28.6496 17.6379 28.1865 17.2368 28.216C17.1465 28.216 17.1064 28.3244 17.1566 28.3934C19.2425 31.2803 23.7553 31.4675 26.5432 30.63C28.8999 29.9206 30.7953 30.8074 31.3769 31.1325C31.4371 31.172 31.4271 31.2606 31.3569 31.2705C30.5446 31.4084 27.6564 32.108 27.7366 34.9654C27.8068 37.34 29.4715 37.6356 30.2337 37.6553C30.324 37.6553 30.3641 37.537 30.2838 37.4878C30.1735 37.4188 30.0833 37.34 29.993 37.2612C29.3011 36.5714 29.291 35.3102 29.973 34.6205C30.5947 33.9998 31.5173 33.8224 31.8383 33.783C31.8984 33.783 31.9586 33.8224 31.9486 33.8815C31.9185 34.7388 31.748 35.6058 31.5474 36.3547C30.7351 39.3106 28.0575 41.4191 24.9387 41.498C24.9286 41.498 24.9186 41.498 24.9086 41.498C24.7682 41.498 24.6579 41.3896 24.6579 41.2516V32.1376C24.6579 32.039 24.5676 31.9701 24.4673 31.9898C21.7095 32.4824 19.5634 31.5267 19.1422 31.3099C19.1021 31.2902 19.062 31.3099 19.062 31.3592L19.1623 40.621C19.1623 40.7294 19.0519 40.8083 18.9416 40.7688C13.9675 38.9066 12.734 35.5664 12.4933 33.8618C12.4833 33.7633 12.3329 33.7732 12.3228 33.8618C12.1022 36.9459 13.787 39.3007 13.787 39.3007C18.5906 46.1683 30.1434 43.1828 30.1535 43.173C31.8683 43.5277 33.4228 43.7543 34.8769 43.8726C34.8769 43.8726 40.2622 44.6017 44.5644 42.572C45.0257 42.3749 45.4369 42.1483 45.7879 41.8921C45.7879 41.8921 45.7879 41.8921 45.7979 41.8921C46.7707 41.1925 47.3724 40.2959 47.6732 39.3401C47.6732 39.3401 47.6732 39.3303 47.6732 39.3204L47.6933 39.3401ZM33.9041 23.8807H38.086C38.086 23.8807 40.9943 23.8708 41.8367 26.344C42.5286 28.9058 39.3195 30.1965 37.7751 30.2556C37.6448 30.2556 37.5344 30.1768 37.5044 30.0487C37.3138 29.2013 36.4313 25.8907 33.8339 24.0975C33.7336 24.0285 33.7838 23.8807 33.9041 23.8807ZM34.0646 40.9955C37.8453 38.1381 37.735 34.2855 37.7551 33.3396C37.7551 33.2312 37.8553 33.1426 37.9657 33.1426C41.3954 33.2115 42.6389 34.8274 42.6389 34.8274C44.1934 37.1922 42.2679 39.419 42.2679 39.419C40.5129 41.9315 35.6892 41.5275 34.1649 41.3403C33.9944 41.3206 33.9242 41.094 34.0646 40.9955Z" fill="#0E576A"/>
</svg>
