<svg width="112" height="112" viewBox="0 0 112 112" fill="none" xmlns="http://www.w3.org/2000/svg">
<circle cx="56" cy="56" r="56" fill="#258794"/>
<g clip-path="url(#clip0_2614_15051)">
<path d="M91.5165 75.9218C91.7753 75.1498 91.9417 74.3506 92.0064 73.5695C92.9954 65.4319 85.0647 63.561 84.9168 63.5246C81.9035 62.4802 78.8902 62.1896 78.6407 62.1623C88.9561 60.1915 88.1704 53.389 88.1704 53.389C88.3738 45.2604 80.212 43.4712 75.0543 43.5621C67.1514 43.6983 63.6944 43.5621 63.6944 43.5621C42.3703 43.0444 21.1294 27.4685 17.8203 24.9346C17.6447 24.8074 17.4044 24.9527 17.4229 25.1616C18.4858 36.0965 22.9965 42.3995 37.4344 44.1887C50.8833 45.8508 55.3293 49.9922 56.4662 51.3636C56.5402 51.4545 56.4292 51.5725 56.3276 51.5089C52.6488 49.1839 44.6626 47.0133 36.4454 46.2685C25.5754 44.8426 25.7233 43.6256 25.141 43.5802C25.0393 43.5802 24.9561 43.6438 24.9376 43.7346C24.8452 44.2432 24.9376 45.9143 28.3299 49.1476C32.5078 53.1256 39.6528 53.7522 46.6499 54.0247C52.0295 54.2336 55.0797 55.8502 56.2074 56.5859C56.3276 56.6585 56.2444 56.8402 56.1057 56.8129C54.3865 56.4315 49.201 55.4324 43.6366 55.6958C37.4899 55.9955 35.4102 55.1327 34.643 55.1872C34.4858 55.1963 34.4027 55.3961 34.4951 55.5233C38.3957 60.9181 46.807 61.2632 52.011 59.701C56.4107 58.3841 59.9509 60.028 61.0324 60.6365C61.1525 60.7001 61.1248 60.8727 60.9861 60.8999C59.4703 61.1542 54.0907 62.4529 54.2386 67.7933C54.3588 72.2253 57.4737 72.7884 58.8972 72.8066C59.0728 72.8066 59.1375 72.5886 58.9896 72.4978C58.7863 72.3707 58.6106 72.2253 58.4535 72.0709C57.1687 70.7722 57.141 68.4381 58.4258 67.1393C59.5812 65.9768 61.3097 65.6499 61.9105 65.5681C62.0214 65.55 62.1323 65.6408 62.1231 65.7588C62.0768 67.3573 61.7533 68.9739 61.3651 70.3817C59.8492 75.9036 54.8486 79.8362 49.0347 79.9815C49.0162 79.9815 48.9884 79.9815 48.97 79.9815C48.7112 79.9815 48.4986 79.7817 48.4986 79.5274V62.5256C48.4986 62.344 48.3322 62.2077 48.1473 62.2441C42.9896 63.1614 39.0058 61.3722 38.2109 60.9816C38.1462 60.9453 38.063 60.9998 38.063 61.0725L38.2478 78.3558C38.2478 78.5647 38.0352 78.71 37.8411 78.6373C28.561 75.168 26.2501 68.9376 25.8065 65.7498C25.7787 65.559 25.5014 65.5772 25.483 65.7679C25.067 71.526 28.219 75.9218 28.219 75.9218C37.1849 88.7458 58.7493 83.1603 58.7678 83.1603C61.9659 83.8233 64.8775 84.2501 67.5858 84.459C67.5858 84.459 78.2247 85.5579 85.6285 82.1885C86.4882 81.8252 87.32 81.3347 87.9856 80.8534C87.9856 80.8534 88.0041 80.8443 88.0133 80.8352C89.8342 79.5274 90.9249 77.7564 91.4887 75.9672C91.4887 75.9672 91.4887 75.949 91.4887 75.9309L91.5165 75.9218ZM65.7741 47.0678L73.5846 47.0496C73.5846 47.0496 79.0104 47.0405 80.591 51.6543C81.8758 56.4315 75.8954 58.8473 73.0116 58.9563C72.7712 58.9654 72.5586 58.811 72.5032 58.5749C72.1519 56.9946 70.4974 50.8187 65.6447 47.4674C65.4599 47.3402 65.543 47.0587 65.7741 47.0587V47.0678ZM66.0699 79.0279C73.1317 73.7057 72.9284 66.5127 72.9653 64.7326C72.9653 64.5237 73.141 64.3602 73.3536 64.3693C79.7499 64.4964 82.1069 67.4663 82.1069 67.4754C85.1571 71.4352 81.6355 75.9763 81.6355 75.9763C77.9844 80.6082 69.0924 80.0178 66.2455 79.6818C65.922 79.6455 65.8018 79.2277 66.0607 79.037L66.0699 79.0279Z" fill="white"/>
</g>
<defs>
<clipPath id="clip0_2614_15051">
<rect width="74.6667" height="59.7333" fill="white" transform="translate(17.4219 24.8884)"/>
</clipPath>
</defs>
</svg>
