<svg width="36" height="36" viewBox="0 0 36 36" fill="none" xmlns="http://www.w3.org/2000/svg">
<circle cx="18" cy="18" r="18" fill="#258794"/>
<g clip-path="url(#clip0_2525_9642)">
<path d="M29.4177 24.4035C29.5009 24.1554 29.5543 23.8985 29.5751 23.6474C29.893 21.0317 27.3439 20.4304 27.2964 20.4187C26.3278 20.083 25.3593 19.9896 25.279 19.9808C28.5947 19.3473 28.3422 17.1608 28.3422 17.1608C28.4075 14.5481 25.7841 13.973 24.1263 14.0022C21.586 14.0459 20.4749 14.0022 20.4749 14.0022C13.6207 13.8358 6.79327 8.82922 5.72964 8.01475C5.67319 7.97388 5.59594 8.02059 5.60189 8.08773C5.94355 11.6025 7.39342 13.6285 12.0342 14.2036C16.357 14.7378 17.7861 16.069 18.1515 16.5098C18.1753 16.539 18.1396 16.577 18.107 16.5565C16.9245 15.8092 14.3575 15.1115 11.7163 14.8721C8.22234 14.4138 8.26987 14.0226 8.0827 14.008C8.05002 14.008 8.02328 14.0284 8.01733 14.0576C7.98762 14.2211 8.01733 14.7582 9.1077 15.7975C10.4506 17.0761 12.7472 17.2776 14.9963 17.3652C16.7254 17.4323 17.7059 17.9519 18.0683 18.1884C18.107 18.2117 18.0802 18.2701 18.0357 18.2614C17.483 18.1388 15.8163 17.8176 14.0277 17.9023C12.052 17.9986 11.3835 17.7213 11.1369 17.7388C11.0864 17.7417 11.0597 17.806 11.0894 17.8468C12.3432 19.5809 15.0468 19.6918 16.7195 19.1897C18.1337 18.7664 19.2716 19.2948 19.6192 19.4904C19.6578 19.5108 19.6489 19.5663 19.6044 19.575C19.1171 19.6568 17.388 20.0742 17.4355 21.7908C17.4741 23.2154 18.4754 23.3964 18.9329 23.4022C18.9894 23.4022 19.0102 23.3321 18.9626 23.3029C18.8973 23.2621 18.8408 23.2154 18.7903 23.1657C18.3773 22.7483 18.3684 21.998 18.7814 21.5806C19.1528 21.2069 19.7083 21.1018 19.9015 21.0755C19.9371 21.0697 19.9728 21.0989 19.9698 21.1368C19.9549 21.6506 19.851 22.1703 19.7262 22.6227C19.2389 24.3977 17.6316 25.6617 15.7628 25.7084C15.7569 25.7084 15.748 25.7084 15.742 25.7084C15.6588 25.7084 15.5905 25.6442 15.5905 25.5624V20.0976C15.5905 20.0392 15.537 19.9954 15.4776 20.0071C13.8198 20.3019 12.5392 19.7268 12.2837 19.6013C12.2629 19.5896 12.2362 19.6071 12.2362 19.6305L12.2956 25.1859C12.2956 25.253 12.2273 25.2997 12.1649 25.2764C9.18198 24.1612 8.43922 22.1586 8.29661 21.1339C8.2877 21.0726 8.19857 21.0785 8.19263 21.1398C8.05893 22.9906 9.07205 24.4035 9.07205 24.4035C11.954 28.5255 18.8854 26.7302 18.8913 26.7302C19.9193 26.9433 20.8552 27.0805 21.7257 27.1476C21.7257 27.1476 25.1453 27.5008 27.5251 26.4178C27.8014 26.301 28.0688 26.1434 28.2827 25.9887C28.2827 25.9887 28.2887 25.9857 28.2917 25.9828C28.877 25.5624 29.2275 24.9932 29.4088 24.4181C29.4088 24.4181 29.4088 24.4123 29.4088 24.4064L29.4177 24.4035ZM21.1434 15.129L23.6539 15.1232C23.6539 15.1232 25.3979 15.1202 25.9059 16.6032C26.3189 18.1388 24.3966 18.9153 23.4697 18.9503C23.3924 18.9532 23.3241 18.9036 23.3063 18.8277C23.1934 18.3198 22.6616 16.3347 21.1018 15.2574C21.0423 15.2166 21.0691 15.1261 21.1434 15.1261V15.129ZM21.2384 25.4019C23.5083 23.6912 23.4429 21.3791 23.4548 20.807C23.4548 20.7398 23.5113 20.6873 23.5796 20.6902C25.6356 20.7311 26.3932 21.6857 26.3932 21.6886C27.3736 22.9614 26.2416 24.421 26.2416 24.421C25.0681 25.9098 22.21 25.7201 21.2949 25.6121C21.1909 25.6004 21.1523 25.4661 21.2355 25.4048L21.2384 25.4019Z" fill="white"/>
</g>
<defs>
<clipPath id="clip0_2525_9642">
<rect width="24" height="19.2" fill="white" transform="translate(5.60156 8)"/>
</clipPath>
</defs>
</svg>
