<svg width="256" height="96" viewBox="0 0 256 96" fill="none" xmlns="http://www.w3.org/2000/svg">
<g clip-path="url(#clip0_2572_12701)">
<path d="M69.7266 39.3852H76.645C77.2449 39.3852 77.8647 39.4452 78.5246 39.5852C79.1844 39.7252 79.8443 39.9451 80.5041 40.225C81.164 40.525 81.7839 40.9049 82.3837 41.3848C82.9836 41.8647 83.5235 42.4245 83.9634 43.1044C84.4033 43.7842 84.7832 44.5441 85.0631 45.4239C85.3431 46.3037 85.463 47.2835 85.463 48.3832C85.463 49.483 85.3231 50.4827 85.0631 51.3426C84.7832 52.2224 84.4233 52.9822 83.9634 53.662C83.5035 54.3419 82.9836 54.9018 82.3837 55.3816C81.7839 55.8615 81.144 56.2415 80.5041 56.5414C79.8443 56.8413 79.1844 57.0613 78.5246 57.1812C77.8647 57.3212 77.2449 57.3812 76.645 57.3812H69.7266V39.3652V39.3852ZM71.8661 55.4216H75.9452C76.9849 55.4216 77.9447 55.2817 78.8245 55.0217C79.7043 54.7418 80.4642 54.3219 81.124 53.762C81.7639 53.2021 82.2837 52.4623 82.6437 51.5825C83.0236 50.7027 83.2035 49.6429 83.2035 48.4032C83.2035 47.1635 83.0236 46.1037 82.6437 45.2239C82.2638 44.3441 81.7639 43.6243 81.124 43.0444C80.4842 42.4845 79.7243 42.0646 78.8245 41.7847C77.9447 41.5048 76.9849 41.3848 75.9452 41.3848H71.8661V55.4216Z" fill="white" stroke="white" stroke-width="0.331579" stroke-miterlimit="10"/>
<path d="M90.1641 39.3851H94.763C95.6228 39.3851 96.4826 39.4451 97.3425 39.5451C98.2023 39.6451 98.9621 39.865 99.6419 40.2049C100.322 40.5449 100.862 41.0448 101.302 41.6846C101.721 42.3445 101.941 43.2243 101.941 44.344C101.941 45.6637 101.542 46.7435 100.742 47.5433C99.9419 48.3431 98.8421 48.883 97.4424 49.103L102.561 57.4011H99.9419L95.063 49.3029H92.3236V57.4011H90.1841V39.3851H90.1641ZM92.3036 47.3234H94.2032C94.803 47.3234 95.4029 47.3234 96.0427 47.2634C96.6826 47.2234 97.2625 47.1234 97.8024 46.9434C98.3422 46.7635 98.7821 46.4635 99.1221 46.0636C99.462 45.6637 99.6419 45.0839 99.6419 44.344C99.6419 43.7042 99.522 43.1843 99.262 42.7844C99.0021 42.3845 98.6822 42.0845 98.2622 41.8846C97.8423 41.6646 97.3824 41.5247 96.8626 41.4647C96.3427 41.4047 95.8228 41.3647 95.3029 41.3647H92.3036V47.3234Z" fill="white" stroke="white" stroke-width="0.331579" stroke-miterlimit="10"/>
<path d="M107.156 39.3852H118.474V41.3648H109.296V47.0035H117.874V48.9831H109.296V55.4016H118.934V57.3812H107.156V39.3652V39.3852Z" fill="white" stroke="white" stroke-width="0.331579" stroke-miterlimit="10"/>
<path d="M130.251 39.3851H132.27L139.929 57.4011H137.429L135.59 52.9821H126.592L124.732 57.4011H122.312L130.251 39.3851ZM131.211 42.1245H131.151L127.411 50.9825H134.77L131.211 42.1245Z" fill="white" stroke="white" stroke-width="0.331579" stroke-miterlimit="10"/>
<path d="M143.973 39.3851H147.152L153.251 53.502H153.311L159.47 39.3851H162.569V57.4011H160.429V42.2845H160.369L153.911 57.4011H152.611L146.153 42.2845H146.093V57.4011H143.953V39.3851H143.973Z" fill="white" stroke="white" stroke-width="0.331579" stroke-miterlimit="10"/>
<path d="M177.297 39.3852H182.796C183.535 39.3852 184.275 39.4652 184.975 39.6052C185.695 39.7651 186.315 40.0051 186.875 40.365C187.435 40.7249 187.895 41.1648 188.234 41.7247C188.574 42.2846 188.754 42.9844 188.754 43.8042C188.754 44.864 188.474 45.7238 187.895 46.4036C187.335 47.0835 186.555 47.5834 185.595 47.8633V47.9233C186.175 47.9833 186.715 48.1232 187.215 48.3632C187.715 48.6031 188.154 48.9231 188.514 49.323C188.874 49.7229 189.154 50.1628 189.374 50.6827C189.574 51.2026 189.674 51.7624 189.674 52.3423C189.674 53.3421 189.474 54.1619 189.054 54.8018C188.634 55.4416 188.094 55.9615 187.435 56.3414C186.755 56.7213 186.015 56.9813 185.175 57.1412C184.335 57.3012 183.495 57.3612 182.676 57.3612H177.317V39.3452L177.297 39.3852ZM179.416 47.0235H182.376C182.876 47.0235 183.376 46.9835 183.855 46.9235C184.335 46.8635 184.775 46.7236 185.175 46.5036C185.555 46.2837 185.875 46.0037 186.115 45.6038C186.355 45.2239 186.475 44.724 186.475 44.0842C186.475 43.5243 186.355 43.0644 186.135 42.7245C185.915 42.3845 185.615 42.1046 185.255 41.9046C184.895 41.7047 184.475 41.5647 184.015 41.4847C183.555 41.4048 183.076 41.3648 182.596 41.3648H179.416V47.0035V47.0235ZM179.416 55.4216H183.036C183.555 55.4216 184.075 55.3616 184.595 55.2617C185.115 55.1617 185.575 54.9817 185.995 54.7218C186.415 54.4818 186.755 54.1619 186.995 53.762C187.255 53.3621 187.375 52.8822 187.375 52.3023C187.375 51.6825 187.255 51.1426 187.015 50.7227C186.775 50.3028 186.455 49.9628 186.055 49.7029C185.655 49.443 185.195 49.263 184.675 49.163C184.155 49.063 183.635 49.0031 183.076 49.0031H179.416V55.4216Z" fill="white" stroke="white" stroke-width="0.331579" stroke-miterlimit="10"/>
<path d="M202.285 57.861C200.905 57.861 199.646 57.6211 198.506 57.1412C197.366 56.6613 196.366 56.0014 195.527 55.1616C194.687 54.3218 194.027 53.322 193.567 52.1623C193.107 51.0026 192.867 49.7428 192.867 48.3832C192.867 47.0235 193.107 45.7637 193.567 44.604C194.027 43.4443 194.687 42.4445 195.527 41.6047C196.366 40.7649 197.366 40.105 198.506 39.6251C199.646 39.1452 200.905 38.9053 202.285 38.9053C203.665 38.9053 204.924 39.1452 206.064 39.6251C207.204 40.105 208.204 40.7649 209.044 41.6047C209.883 42.4445 210.543 43.4443 211.003 44.604C211.463 45.7637 211.703 47.0235 211.703 48.3832C211.703 49.7428 211.463 51.0026 211.003 52.1623C210.543 53.322 209.883 54.3218 209.044 55.1616C208.204 56.0014 207.204 56.6613 206.064 57.1412C204.924 57.6211 203.665 57.861 202.285 57.861ZM202.285 55.8815C203.345 55.8815 204.305 55.6815 205.164 55.3016C206.044 54.9217 206.784 54.3818 207.424 53.702C208.064 53.0221 208.544 52.2223 208.884 51.3225C209.224 50.4227 209.403 49.4429 209.403 48.4031C209.403 47.3634 209.224 46.4036 208.884 45.4838C208.544 44.584 208.044 43.7842 207.424 43.1043C206.804 42.4245 206.044 41.8846 205.164 41.5047C204.285 41.1248 203.325 40.9248 202.285 40.9248C201.245 40.9248 200.266 41.1248 199.406 41.5047C198.526 41.8846 197.786 42.4245 197.146 43.1043C196.506 43.7842 196.026 44.584 195.687 45.4838C195.347 46.3836 195.167 47.3634 195.167 48.4031C195.167 49.4429 195.347 50.4027 195.687 51.3225C196.026 52.2223 196.526 53.0221 197.146 53.702C197.766 54.3818 198.526 54.9217 199.406 55.3016C200.286 55.7015 201.245 55.8815 202.285 55.8815Z" fill="white" stroke="white" stroke-width="0.331579" stroke-miterlimit="10"/>
<path d="M212.09 57.861C210.71 57.861 209.45 57.6211 208.311 57.1412C207.171 56.6613 206.171 56.0014 205.331 55.1616C204.491 54.3218 203.832 53.322 203.372 52.1623C202.912 51.0026 202.672 49.7428 202.672 48.3832C202.672 47.0235 202.912 45.7637 203.372 44.604C203.832 43.4443 204.491 42.4445 205.331 41.6047C206.171 40.7649 207.171 40.105 208.311 39.6251C209.45 39.1452 210.71 38.9053 212.09 38.9053C213.469 38.9053 214.729 39.1452 215.869 39.6251C217.009 40.105 218.008 40.7649 218.848 41.6047C219.688 42.4445 220.348 43.4443 220.808 44.604C221.268 45.7637 221.508 47.0235 221.508 48.3832C221.508 49.7428 221.268 51.0026 220.808 52.1623C220.348 53.322 219.688 54.3218 218.848 55.1616C218.008 56.0014 217.009 56.6613 215.869 57.1412C214.729 57.6211 213.469 57.861 212.09 57.861ZM212.09 55.8815C213.15 55.8815 214.109 55.6815 214.969 55.3016C215.849 54.9217 216.589 54.3818 217.229 53.702C217.848 53.0221 218.348 52.2223 218.688 51.3225C219.028 50.4227 219.208 49.4429 219.208 48.4031C219.208 47.3634 219.028 46.4036 218.688 45.4838C218.348 44.584 217.848 43.7842 217.229 43.1043C216.609 42.4245 215.849 41.8846 214.969 41.5047C214.089 41.1248 213.13 40.9248 212.09 40.9248C211.05 40.9248 210.07 41.1248 209.21 41.5047C208.331 41.8846 207.591 42.4245 206.951 43.1043C206.331 43.7842 205.831 44.584 205.491 45.4838C205.151 46.3836 204.971 47.3634 204.971 48.4031C204.971 49.4429 205.151 50.4027 205.491 51.3225C205.831 52.2223 206.331 53.0221 206.951 53.702C207.571 54.3818 208.331 54.9217 209.21 55.3016C210.09 55.7015 211.05 55.8815 212.09 55.8815Z" fill="white" stroke="white" stroke-width="0.331579" stroke-miterlimit="10"/>
<path d="M235.294 42.5645C234.934 41.9846 234.455 41.5647 233.875 41.3048C233.275 41.0448 232.655 40.9049 232.015 40.9049C231.535 40.9049 231.075 40.9648 230.615 41.0848C230.156 41.2048 229.756 41.3847 229.376 41.6247C229.016 41.8646 228.716 42.1846 228.496 42.5645C228.276 42.9644 228.176 43.4043 228.176 43.9442C228.176 44.3441 228.236 44.704 228.376 45.0239C228.496 45.3439 228.716 45.6238 228.996 45.8837C229.276 46.1437 229.676 46.3836 230.176 46.6036C230.675 46.8235 231.275 47.0435 231.975 47.2634C232.675 47.4834 233.355 47.7233 233.995 47.9833C234.654 48.2432 235.234 48.5631 235.734 48.943C236.234 49.323 236.634 49.8229 236.934 50.4027C237.234 50.9826 237.374 51.7224 237.374 52.6022C237.374 53.482 237.194 54.2819 236.834 54.9417C236.474 55.6016 236.014 56.1414 235.414 56.5813C234.834 57.0212 234.155 57.3412 233.395 57.5411C232.635 57.7411 231.835 57.8611 231.035 57.8611C230.515 57.8611 229.976 57.8211 229.456 57.7211C228.936 57.6211 228.416 57.4811 227.936 57.2812C227.456 57.0812 226.996 56.8413 226.576 56.5214C226.156 56.2014 225.776 55.8215 225.477 55.3616L227.316 53.8619C227.716 54.5218 228.256 55.0217 228.956 55.3616C229.656 55.7015 230.395 55.8615 231.175 55.8615C231.635 55.8615 232.095 55.8015 232.555 55.6615C233.015 55.5216 233.435 55.3216 233.815 55.0617C234.195 54.8017 234.495 54.4818 234.734 54.0819C234.974 53.682 235.094 53.2421 235.094 52.7422C235.094 52.1823 234.994 51.7224 234.814 51.3825C234.635 51.0426 234.335 50.7426 233.955 50.4827C233.555 50.2228 233.075 50.0028 232.475 49.8029C231.875 49.6029 231.195 49.363 230.395 49.083C229.756 48.8831 229.156 48.6431 228.616 48.3832C228.076 48.1232 227.596 47.8033 227.196 47.4234C226.796 47.0435 226.476 46.5836 226.256 46.0437C226.036 45.5038 225.916 44.864 225.916 44.1241C225.916 43.2643 226.076 42.5045 226.436 41.8646C226.776 41.2248 227.236 40.6849 227.816 40.245C228.396 39.8051 229.036 39.4852 229.776 39.2652C230.495 39.0453 231.275 38.9253 232.075 38.9253C233.095 38.9253 234.015 39.0853 234.854 39.4052C235.694 39.7251 236.454 40.265 237.114 41.0448L235.354 42.5645H235.294Z" fill="white" stroke="white" stroke-width="0.331579" stroke-miterlimit="10"/>
<path d="M255.526 41.3647H249.567V57.4011H247.427V41.3647H241.469V39.3851H255.506V41.3647H255.526Z" fill="white" stroke="white" stroke-width="0.331579" stroke-miterlimit="10"/>
<path d="M59.1642 58.1653C59.381 57.5363 59.5111 56.8856 59.5544 56.2566C60.3349 49.6414 54.0044 48.1231 53.896 48.0798C51.4895 47.2339 49.0831 46.9953 48.888 46.9736C57.1263 45.3686 56.4976 39.8379 56.4976 39.8379C56.671 33.2226 50.1454 31.7695 46.0262 31.8562C39.7174 31.9647 36.9424 31.8562 36.9424 31.8562C19.9237 31.4224 2.94845 18.7776 0.325197 16.7171C0.173438 16.6087 0 16.7171 0 16.8906C0.845512 25.7832 4.44436 30.9019 15.978 32.3551C26.7095 33.6998 30.265 37.0616 31.1756 38.1895C31.2406 38.2545 31.1539 38.363 31.0672 38.2979C28.1187 36.411 21.7448 34.6324 15.1759 34.0468C6.50394 32.8756 6.61234 31.8996 6.13538 31.8562C6.04866 31.8562 5.98363 31.8996 5.98363 31.9864C5.91859 32.3984 5.98363 33.7649 8.6936 36.3893C12.0323 39.621 17.7341 40.1415 23.3275 40.3584C27.6201 40.5319 30.0699 41.8333 30.9588 42.4406C31.0455 42.5056 30.9804 42.6575 30.872 42.6141C29.5062 42.3104 25.3654 41.4862 20.921 41.7031C16.0214 41.9417 14.352 41.2477 13.745 41.291C13.6149 41.291 13.5499 41.4646 13.6366 41.573C16.7585 45.9542 23.4792 46.2362 27.6201 44.9782C31.1322 43.9154 33.9506 45.2385 34.8178 45.7373C34.9045 45.7807 34.8828 45.9325 34.7744 45.9542C33.5603 46.1711 29.2677 47.2122 29.3761 51.5501C29.4845 55.1505 31.956 55.6059 33.1051 55.6276C33.2351 55.6276 33.3002 55.4541 33.1918 55.3674C33.04 55.2589 32.8883 55.1505 32.7582 55.0203C31.7392 53.9576 31.7176 52.0706 32.7365 51.0078C33.6687 50.0535 35.0346 49.7932 35.5115 49.7282C35.5982 49.7282 35.685 49.7932 35.685 49.88C35.6416 51.1813 35.3814 52.4827 35.0779 53.6322C33.8639 58.1219 29.8748 61.3102 25.2353 61.4403H25.1919C24.9751 61.4403 24.8234 61.2668 24.8234 61.0716V47.2339C24.8234 47.0821 24.6933 46.9736 24.5415 46.9953C20.4224 47.7544 17.2354 46.2796 16.6067 45.9759C16.5417 45.9542 16.4983 45.9759 16.4983 46.041L16.6501 60.0956C16.6501 60.2691 16.4767 60.3776 16.3249 60.3125C8.9104 57.4929 7.06762 52.4176 6.72074 49.8366C6.72074 49.6848 6.48226 49.7065 6.46058 49.8366C6.13538 54.5215 8.65024 58.1002 8.65024 58.1002C15.8046 68.5327 33.04 63.9997 33.04 63.978C35.5982 64.5202 37.918 64.8672 40.086 65.0408C40.086 65.0408 48.5844 65.93 54.503 63.1972C55.1968 62.8935 55.8472 62.5031 56.3892 62.1127C57.8417 61.0499 58.7089 59.6185 59.1642 58.1653C59.1642 58.1653 59.1642 58.1653 59.1642 58.1436V58.1653ZM38.6117 34.7192H44.8555C44.8555 34.7192 49.1915 34.7192 50.4489 38.4497C51.4679 42.3321 46.6983 44.3058 44.4002 44.3926C44.2051 44.3926 44.0317 44.2842 43.9883 44.089C43.7065 42.8093 42.384 37.7774 38.5033 35.0662C38.3516 34.9578 38.4166 34.7409 38.6117 34.7409V34.7192ZM38.8502 60.7029C44.487 56.3651 44.3352 50.5307 44.3569 49.0775C44.3569 48.904 44.5086 48.7738 44.6604 48.7738C49.7551 48.8823 51.4462 51.6802 51.4462 51.7019C53.7659 55.3023 51.3378 57.8182 51.3378 57.8182C48.7145 61.6356 41.2567 61.5054 38.9803 61.2451C38.7201 61.2235 38.6334 60.8764 38.8285 60.7246L38.8502 60.7029Z" fill="white"/>
</g>
<defs>
<clipPath id="clip0_2572_12701">
<rect width="255.663" height="96" fill="white"/>
</clipPath>
</defs>
</svg>
