<svg width="259" height="56" viewBox="0 0 259 56" fill="none" xmlns="http://www.w3.org/2000/svg">
<path d="M4.89062 15.8878H14.2036C15.0111 15.8878 15.8455 15.9685 16.7338 16.1569C17.622 16.3453 18.5102 16.6414 19.3985 17.0182C20.2867 17.422 21.1211 17.9334 21.9286 18.5794C22.7361 19.2254 23.4628 19.979 24.055 20.8942C24.6471 21.8093 25.1586 22.8321 25.5354 24.0165C25.9122 25.2008 26.0737 26.5197 26.0737 28.0001C26.0737 29.4805 25.8853 30.8263 25.5354 31.9837C25.1586 33.168 24.6741 34.1908 24.055 35.106C23.4359 36.0211 22.7361 36.7748 21.9286 37.4207C21.1211 38.0667 20.2598 38.5781 19.3985 38.9819C18.5102 39.3856 17.622 39.6817 16.7338 39.8432C15.8455 40.0316 15.0111 40.1124 14.2036 40.1124H4.89062V15.8608V15.8878ZM7.77066 37.4746H13.2616C14.6612 37.4746 15.9532 37.2862 17.1375 36.9363C18.3218 36.5594 19.3446 35.9942 20.2329 35.2405C21.0942 34.4869 21.794 33.491 22.2785 32.3067C22.7899 31.1224 23.0322 29.6958 23.0322 28.027C23.0322 26.3582 22.7899 24.9316 22.2785 23.7473C21.7671 22.563 21.0942 21.594 20.2329 20.8134C19.3716 20.0598 18.3487 19.4945 17.1375 19.1177C15.9532 18.7409 14.6612 18.5794 13.2616 18.5794H7.77066V37.4746Z" fill="#0E576A" stroke="#0E576A" stroke-width="0.5" stroke-miterlimit="10"/>
<path d="M32.3906 15.8877H38.5814C39.7388 15.8877 40.8962 15.9684 42.0536 16.103C43.211 16.2376 44.2338 16.5337 45.1489 16.9913C46.0641 17.4488 46.7908 18.1217 47.383 18.9831C47.9482 19.8713 48.2443 21.0556 48.2443 22.5629C48.2443 24.3394 47.706 25.7929 46.6293 26.8695C45.5527 27.9462 44.0723 28.6729 42.1881 28.969L49.0787 40.1392H45.5527L38.9851 29.2382H35.2976V40.1392H32.4175V15.8877H32.3906ZM35.2707 26.5734H37.8277C38.6352 26.5734 39.4427 26.5734 40.304 26.4927C41.1653 26.4389 41.9459 26.3043 42.6726 26.062C43.3994 25.8198 43.9915 25.416 44.4491 24.8777C44.9067 24.3394 45.1489 23.5588 45.1489 22.5629C45.1489 21.7016 44.9874 21.0018 44.6375 20.4635C44.2876 19.9251 43.8569 19.5214 43.2917 19.2522C42.7265 18.9561 42.1074 18.7677 41.4076 18.687C40.7077 18.6062 40.0079 18.5524 39.3081 18.5524H35.2707V26.5734Z" fill="#0E576A" stroke="#0E576A" stroke-width="0.5" stroke-miterlimit="10"/>
<path d="M55.2812 15.8878H70.5158V18.5525H58.1613V26.1428H69.7084V28.8076H58.1613V37.4477H71.1349V40.1124H55.2812V15.8608V15.8878Z" fill="#0E576A" stroke="#0E576A" stroke-width="0.5" stroke-miterlimit="10"/>
<path d="M86.3576 15.8877H89.0762L99.3851 40.1392H96.0206L93.5443 34.1907H81.432L78.9287 40.1392H75.6719L86.3576 15.8877ZM87.6496 19.5752H87.5688L82.5355 31.4991H92.4407L87.6496 19.5752Z" fill="#0E576A" stroke="#0E576A" stroke-width="0.5" stroke-miterlimit="10"/>
<path d="M104.839 15.8877H109.119L117.329 34.8906H117.409L125.7 15.8877H129.872V40.1392H126.991V19.7905H126.911L118.217 40.1392H116.467L107.773 19.7905H107.693V40.1392H104.812V15.8877H104.839Z" fill="#0E576A" stroke="#0E576A" stroke-width="0.5" stroke-miterlimit="10"/>
<path d="M149.703 15.8878H157.105C158.101 15.8878 159.097 15.9955 160.039 16.1839C161.008 16.3992 161.842 16.7222 162.596 17.2067C163.35 17.6912 163.969 18.2834 164.426 19.037C164.884 19.7907 165.126 20.7327 165.126 21.8363C165.126 23.2629 164.749 24.4203 163.969 25.3354C163.215 26.2506 162.165 26.9235 160.873 27.3003V27.3811C161.654 27.4618 162.381 27.6502 163.054 27.9732C163.726 28.2962 164.319 28.7269 164.803 29.2652C165.288 29.8035 165.664 30.3957 165.961 31.0955C166.23 31.7953 166.364 32.549 166.364 33.3295C166.364 34.6754 166.095 35.7789 165.53 36.6402C164.965 37.5016 164.238 38.2014 163.35 38.7128C162.435 39.2242 161.439 39.5741 160.308 39.7894C159.178 40.0048 158.047 40.0855 156.944 40.0855H149.73V15.834L149.703 15.8878ZM152.556 26.1698H156.54C157.213 26.1698 157.886 26.116 158.532 26.0352C159.178 25.9545 159.77 25.7661 160.308 25.47C160.82 25.1739 161.25 24.7971 161.573 24.2588C161.896 23.7474 162.058 23.0745 162.058 22.2131C162.058 21.4595 161.896 20.8404 161.6 20.3828C161.304 19.9253 160.9 19.5484 160.416 19.2793C159.931 19.0101 159.366 18.8217 158.747 18.714C158.128 18.6064 157.482 18.5525 156.836 18.5525H152.556V26.1429V26.1698ZM152.556 37.4746H157.428C158.128 37.4746 158.828 37.3939 159.528 37.2593C160.227 37.1247 160.846 36.8825 161.412 36.5326C161.977 36.2096 162.435 35.7789 162.757 35.2406C163.107 34.7023 163.269 34.0563 163.269 33.2757C163.269 32.4413 163.107 31.7146 162.784 31.1493C162.461 30.5841 162.031 30.1265 161.492 29.7766C160.954 29.4267 160.335 29.1844 159.635 29.0499C158.935 28.9153 158.236 28.8345 157.482 28.8345H152.556V37.4746Z" fill="#0E576A" stroke="#0E576A" stroke-width="0.5" stroke-miterlimit="10"/>
<path d="M183.318 40.7583C181.461 40.7583 179.765 40.4353 178.231 39.7893C176.697 39.1433 175.351 38.2551 174.22 37.1246C173.09 35.9941 172.202 34.6483 171.583 33.0872C170.964 31.526 170.641 29.8303 170.641 28C170.641 26.1697 170.964 24.474 171.583 22.9128C172.202 21.3517 173.09 20.0059 174.22 18.8754C175.351 17.7449 176.697 16.8567 178.231 16.2107C179.765 15.5647 181.461 15.2417 183.318 15.2417C185.175 15.2417 186.871 15.5647 188.405 16.2107C189.94 16.8567 191.285 17.7449 192.416 18.8754C193.546 20.0059 194.435 21.3517 195.054 22.9128C195.673 24.474 195.996 26.1697 195.996 28C195.996 29.8303 195.673 31.526 195.054 33.0872C194.435 34.6483 193.546 35.9941 192.416 37.1246C191.285 38.2551 189.94 39.1433 188.405 39.7893C186.871 40.4353 185.175 40.7583 183.318 40.7583ZM183.318 38.0936C184.745 38.0936 186.037 37.8244 187.194 37.313C188.378 36.8016 189.374 36.0749 190.236 35.1597C191.097 34.2446 191.743 33.1679 192.201 31.9567C192.658 30.7455 192.9 29.4266 192.9 28.0269C192.9 26.6273 192.658 25.3353 192.201 24.0971C191.743 22.8859 191.07 21.8093 190.236 20.8941C189.401 19.979 188.378 19.2522 187.194 18.7408C186.01 18.2294 184.718 17.9602 183.318 17.9602C181.919 17.9602 180.6 18.2294 179.442 18.7408C178.258 19.2522 177.262 19.979 176.401 20.8941C175.539 21.8093 174.893 22.8859 174.436 24.0971C173.978 25.3084 173.736 26.6273 173.736 28.0269C173.736 29.4266 173.978 30.7185 174.436 31.9567C174.893 33.1679 175.566 34.2446 176.401 35.1597C177.235 36.0749 178.258 36.8016 179.442 37.313C180.627 37.8513 181.919 38.0936 183.318 38.0936Z" fill="#0E576A" stroke="#0E576A" stroke-width="0.5" stroke-miterlimit="10"/>
<path d="M196.537 40.7583C194.68 40.7583 192.984 40.4353 191.45 39.7893C189.916 39.1433 188.57 38.2551 187.439 37.1246C186.309 35.9941 185.421 34.6483 184.801 33.0872C184.182 31.526 183.859 29.8303 183.859 28C183.859 26.1697 184.182 24.474 184.801 22.9128C185.421 21.3517 186.309 20.0059 187.439 18.8754C188.57 17.7449 189.916 16.8567 191.45 16.2107C192.984 15.5647 194.68 15.2417 196.537 15.2417C198.394 15.2417 200.09 15.5647 201.624 16.2107C203.158 16.8567 204.504 17.7449 205.635 18.8754C206.765 20.0059 207.653 21.3517 208.272 22.9128C208.891 24.474 209.214 26.1697 209.214 28C209.214 29.8303 208.891 31.526 208.272 33.0872C207.653 34.6483 206.765 35.9941 205.635 37.1246C204.504 38.2551 203.158 39.1433 201.624 39.7893C200.09 40.4353 198.394 40.7583 196.537 40.7583ZM196.537 38.0936C197.963 38.0936 199.255 37.8244 200.413 37.313C201.597 36.8016 202.593 36.0749 203.454 35.1597C204.289 34.2446 204.962 33.1679 205.419 31.9567C205.877 30.7455 206.119 29.4266 206.119 28.0269C206.119 26.6273 205.877 25.3353 205.419 24.0971C204.962 22.8859 204.289 21.8093 203.454 20.8941C202.62 19.979 201.597 19.2522 200.413 18.7408C199.229 18.2294 197.937 17.9602 196.537 17.9602C195.137 17.9602 193.818 18.2294 192.661 18.7408C191.477 19.2522 190.481 19.979 189.619 20.8941C188.785 21.8093 188.112 22.8859 187.655 24.0971C187.197 25.3084 186.955 26.6273 186.955 28.0269C186.955 29.4266 187.197 30.7185 187.655 31.9567C188.112 33.1679 188.785 34.2446 189.619 35.1597C190.454 36.0749 191.477 36.8016 192.661 37.313C193.845 37.8513 195.137 38.0936 196.537 38.0936Z" fill="#0E576A" stroke="#0E576A" stroke-width="0.5" stroke-miterlimit="10"/>
<path d="M227.763 20.1673C227.278 19.3867 226.632 18.8215 225.852 18.4716C225.044 18.1217 224.21 17.9333 223.348 17.9333C222.702 17.9333 222.083 18.014 221.464 18.1755C220.845 18.337 220.307 18.5793 219.796 18.9022C219.311 19.2252 218.907 19.6559 218.611 20.1673C218.315 20.7056 218.181 21.2978 218.181 22.0245C218.181 22.5629 218.261 23.0473 218.45 23.478C218.611 23.9087 218.907 24.2855 219.284 24.6354C219.661 24.9853 220.199 25.3083 220.872 25.6044C221.545 25.9005 222.353 26.1965 223.295 26.4926C224.237 26.7887 225.152 27.1117 226.013 27.4616C226.901 27.8115 227.682 28.2422 228.355 28.7536C229.028 29.265 229.566 29.9379 229.97 30.7185C230.374 31.4991 230.562 32.495 230.562 33.6793C230.562 34.8636 230.32 35.9402 229.835 36.8285C229.351 37.7167 228.732 38.4434 227.924 39.0356C227.144 39.6278 226.229 40.0584 225.206 40.3276C224.183 40.5967 223.106 40.7582 222.03 40.7582C221.33 40.7582 220.603 40.7044 219.903 40.5698C219.203 40.4352 218.504 40.2468 217.858 39.9777C217.212 39.7085 216.592 39.3855 216.027 38.9548C215.462 38.5242 214.951 38.0128 214.547 37.3937L217.023 35.375C217.561 36.2632 218.288 36.9361 219.23 37.3937C220.172 37.8513 221.168 38.0666 222.218 38.0666C222.837 38.0666 223.456 37.9859 224.075 37.7974C224.694 37.609 225.26 37.3399 225.771 36.99C226.282 36.6401 226.686 36.2094 227.009 35.6711C227.332 35.1327 227.494 34.5406 227.494 33.8677C227.494 33.114 227.359 32.495 227.117 32.0374C226.875 31.5798 226.471 31.1761 225.959 30.8261C225.421 30.4762 224.775 30.1802 223.968 29.911C223.16 29.6418 222.245 29.3188 221.168 28.942C220.307 28.6728 219.499 28.3498 218.773 27.9999C218.046 27.65 217.4 27.2194 216.862 26.708C216.323 26.1965 215.893 25.5775 215.597 24.8507C215.301 24.124 215.139 23.2627 215.139 22.2668C215.139 21.1094 215.354 20.0866 215.839 19.2252C216.296 18.3639 216.915 17.6372 217.696 17.045C218.477 16.4529 219.338 16.0222 220.334 15.7261C221.303 15.4301 222.353 15.2686 223.429 15.2686C224.802 15.2686 226.04 15.4839 227.171 15.9145C228.301 16.3452 229.324 17.0719 230.212 18.1217L227.843 20.1673H227.763Z" fill="#0E576A" stroke="#0E576A" stroke-width="0.5" stroke-miterlimit="10"/>
<path d="M255 18.5524H246.979V40.1392H244.099V18.5524H236.078V15.8877H254.973V18.5524H255Z" fill="#0E576A" stroke="#0E576A" stroke-width="0.5" stroke-miterlimit="10"/>
</svg>
