<svg width="462" height="49" viewBox="0 0 462 49" fill="none" xmlns="http://www.w3.org/2000/svg">
<path d="M1 2.18972H18.154C19.6413 2.18972 21.1783 2.33845 22.8144 2.68549C24.4504 3.03254 26.0865 3.5779 27.7226 4.27199C29.3586 5.01567 30.8956 5.95765 32.3829 7.14752C33.8703 8.3374 35.2089 9.72558 36.2996 11.4112C37.3903 13.0969 38.3323 14.9809 39.0264 17.1623C39.7205 19.3437 40.0179 21.773 40.0179 24.4998C40.0179 27.2266 39.6709 29.7055 39.0264 31.8374C38.3323 34.0188 37.4399 35.9028 36.2996 37.5884C35.1593 39.2741 33.8703 40.6623 32.3829 41.8522C30.8956 43.042 29.3091 43.984 27.7226 44.7277C26.0865 45.4714 24.4504 46.0167 22.8144 46.3142C21.1783 46.6612 19.6413 46.81 18.154 46.81H1V2.14014V2.18972ZM6.30485 41.9513H16.4188C18.9968 41.9513 21.3766 41.6043 23.558 40.9598C25.7394 40.2657 27.6234 39.2245 29.2595 37.8363C30.846 36.4482 32.135 34.6138 33.0274 32.4323C33.9694 30.2509 34.4156 27.6233 34.4156 24.5494C34.4156 21.4756 33.9694 18.8479 33.0274 16.6665C32.0854 14.4851 30.846 12.7003 29.2595 11.2625C27.673 9.87432 25.789 8.83318 23.558 8.13908C21.3766 7.44499 18.9968 7.14752 16.4188 7.14752H6.30485V41.9513Z" fill="white" stroke="white" stroke-width="0.25" stroke-miterlimit="10"/>
<path d="M51.6562 2.1897H63.0592C65.1911 2.1897 67.3229 2.33843 69.4548 2.58632C71.5866 2.83421 73.4706 3.37957 75.1562 4.2224C76.8419 5.06522 78.1805 6.30467 79.2712 7.89117C80.3124 9.52725 80.8577 11.7087 80.8577 14.4851C80.8577 17.7572 79.8662 20.4344 77.883 22.4175C75.8999 24.4007 73.1731 25.7393 69.7027 26.2846L82.3947 46.8595H75.8999L63.8029 26.7804H57.0107V46.8595H51.7058V2.1897H51.6562ZM56.9611 21.8722H61.671C63.1584 21.8722 64.6457 21.8722 66.2322 21.7235C67.8187 21.6243 69.2565 21.3764 70.5951 20.9302C71.9337 20.484 73.0244 19.7403 73.8672 18.7488C74.71 17.7572 75.1562 16.3194 75.1562 14.4851C75.1562 12.8986 74.8588 11.6095 74.2143 10.618C73.5697 9.62641 72.7765 8.88274 71.7354 8.38695C70.6942 7.8416 69.5539 7.49455 68.2649 7.34582C66.9759 7.19708 65.6868 7.09792 64.3978 7.09792H56.9611V21.8722Z" fill="white" stroke="white" stroke-width="0.25" stroke-miterlimit="10"/>
<path d="M93.8047 2.18972H121.866V7.09794H99.1095V21.079H120.379V25.9872H99.1095V41.9017H123.006V46.81H93.8047V2.14014V2.18972Z" fill="white" stroke="white" stroke-width="0.25" stroke-miterlimit="10"/>
<path d="M151.073 2.1897H156.081L175.069 46.8595H168.872L164.31 35.9028H142L137.39 46.8595H131.391L151.073 2.1897ZM153.453 8.98189H153.304L144.033 30.945H162.278L153.453 8.98189Z" fill="white" stroke="white" stroke-width="0.25" stroke-miterlimit="10"/>
<path d="M185.089 2.1897H192.972L208.093 37.1918H208.242L223.512 2.1897H231.196V46.8595H225.891V9.37852H225.743L209.729 46.8595H206.506L190.493 9.37852H190.344V46.8595H185.039V2.1897H185.089Z" fill="white" stroke="white" stroke-width="0.25" stroke-miterlimit="10"/>
<path d="M267.727 2.18973H281.361C283.195 2.18973 285.029 2.38805 286.765 2.73509C288.549 3.13172 290.086 3.72665 291.474 4.61906C292.863 5.51146 294.003 6.60218 294.846 7.99037C295.689 9.37855 296.135 11.1138 296.135 13.1465C296.135 15.7741 295.441 17.906 294.003 19.5916C292.615 21.2773 290.681 22.5167 288.301 23.2108V23.3596C289.739 23.5083 291.078 23.8553 292.317 24.4503C293.557 25.0452 294.647 25.8385 295.54 26.83C296.432 27.8216 297.126 28.9123 297.672 30.2013C298.167 31.4904 298.415 32.8786 298.415 34.3163C298.415 36.7952 297.92 38.8279 296.878 40.4144C295.837 42.0009 294.499 43.2899 292.863 44.2319C291.177 45.1739 289.343 45.8184 287.26 46.215C285.178 46.6117 283.096 46.7604 281.063 46.7604H267.776V2.09058L267.727 2.18973ZM272.982 21.1286H280.319C281.559 21.1286 282.798 21.0294 283.988 20.8807C285.178 20.7319 286.269 20.3849 287.26 19.8395C288.202 19.2942 288.996 18.6001 289.591 17.6085C290.185 16.6665 290.483 15.4271 290.483 13.8406C290.483 12.4524 290.185 11.3121 289.64 10.4693C289.095 9.62644 288.351 8.93235 287.459 8.43657C286.566 7.94079 285.525 7.59374 284.385 7.39543C283.244 7.19712 282.055 7.09796 280.865 7.09796H272.982V21.079V21.1286ZM272.982 41.9513H281.955C283.245 41.9513 284.534 41.8026 285.823 41.5547C287.112 41.3068 288.252 40.8606 289.293 40.2161C290.334 39.6212 291.177 38.8279 291.772 37.8364C292.416 36.8448 292.714 35.6549 292.714 34.2172C292.714 32.6802 292.416 31.3416 291.822 30.3005C291.227 29.2594 290.433 28.4165 289.442 27.772C288.45 27.1275 287.31 26.6813 286.021 26.4334C284.732 26.1855 283.443 26.0368 282.055 26.0368H272.982V41.9513Z" fill="white" stroke="white" stroke-width="0.25" stroke-miterlimit="10"/>
<path d="M329.656 48C326.235 48 323.112 47.4051 320.286 46.2152C317.46 45.0253 314.981 43.3892 312.899 41.307C310.816 39.2247 309.18 36.7458 308.04 33.8703C306.9 30.9947 306.305 27.8713 306.305 24.5C306.305 21.1287 306.9 18.0053 308.04 15.1297C309.18 12.2542 310.816 9.77531 312.899 7.69304C314.981 5.61076 317.46 3.97468 320.286 2.78481C323.112 1.59494 326.235 1 329.656 1C333.077 1 336.2 1.59494 339.026 2.78481C341.852 3.97468 344.331 5.61076 346.413 7.69304C348.496 9.77531 350.132 12.2542 351.272 15.1297C352.412 18.0053 353.007 21.1287 353.007 24.5C353.007 27.8713 352.412 30.9947 351.272 33.8703C350.132 36.7458 348.496 39.2247 346.413 41.307C344.331 43.3892 341.852 45.0253 339.026 46.2152C336.2 47.4051 333.077 48 329.656 48ZM329.656 43.0918C332.284 43.0918 334.663 42.596 336.795 41.654C338.977 40.712 340.811 39.3734 342.398 37.6878C343.984 36.0021 345.174 34.019 346.017 31.788C346.86 29.557 347.306 27.1276 347.306 24.5496C347.306 21.9715 346.86 19.5918 346.017 17.3112C345.174 15.0802 343.934 13.097 342.398 11.4114C340.861 9.72574 338.977 8.38713 336.795 7.44514C334.614 6.50316 332.234 6.00738 329.656 6.00738C327.078 6.00738 324.649 6.50316 322.517 7.44514C320.335 8.38713 318.501 9.72574 316.914 11.4114C315.328 13.097 314.138 15.0802 313.295 17.3112C312.452 19.5422 312.006 21.9715 312.006 24.5496C312.006 27.1276 312.452 29.5074 313.295 31.788C314.138 34.019 315.377 36.0021 316.914 37.6878C318.451 39.3734 320.335 40.712 322.517 41.654C324.698 42.6456 327.078 43.0918 329.656 43.0918Z" fill="white" stroke="white" stroke-width="0.25" stroke-miterlimit="10"/>
<path d="M353.992 48C350.571 48 347.448 47.4051 344.622 46.2152C341.796 45.0253 339.317 43.3892 337.235 41.307C335.152 39.2247 333.516 36.7458 332.376 33.8703C331.236 30.9947 330.641 27.8713 330.641 24.5C330.641 21.1287 331.236 18.0053 332.376 15.1297C333.516 12.2542 335.152 9.77531 337.235 7.69304C339.317 5.61076 341.796 3.97468 344.622 2.78481C347.448 1.59494 350.571 1 353.992 1C357.413 1 360.536 1.59494 363.362 2.78481C366.188 3.97468 368.667 5.61076 370.749 7.69304C372.832 9.77531 374.468 12.2542 375.608 15.1297C376.748 18.0053 377.343 21.1287 377.343 24.5C377.343 27.8713 376.748 30.9947 375.608 33.8703C374.468 36.7458 372.832 39.2247 370.749 41.307C368.667 43.3892 366.188 45.0253 363.362 46.2152C360.536 47.4051 357.413 48 353.992 48ZM353.992 43.0918C356.62 43.0918 358.999 42.596 361.131 41.654C363.313 40.712 365.147 39.3734 366.733 37.6878C368.27 36.0021 369.51 34.019 370.353 31.788C371.195 29.557 371.642 27.1276 371.642 24.5496C371.642 21.9715 371.195 19.5918 370.353 17.3112C369.51 15.0802 368.27 13.097 366.733 11.4114C365.197 9.72574 363.313 8.38713 361.131 7.44514C358.95 6.50316 356.57 6.00738 353.992 6.00738C351.414 6.00738 348.984 6.50316 346.853 7.44514C344.671 8.38713 342.837 9.72574 341.25 11.4114C339.713 13.097 338.474 15.0802 337.631 17.3112C336.788 19.5422 336.342 21.9715 336.342 24.5496C336.342 27.1276 336.788 29.5074 337.631 31.788C338.474 34.019 339.713 36.0021 341.25 37.6878C342.787 39.3734 344.671 40.712 346.853 41.654C349.034 42.6456 351.414 43.0918 353.992 43.0918Z" fill="white" stroke="white" stroke-width="0.25" stroke-miterlimit="10"/>
<path d="M411.515 10.0728C410.622 8.63501 409.432 7.59387 407.995 6.94935C406.507 6.30484 404.97 5.95779 403.384 5.95779C402.194 5.95779 401.054 6.10652 399.913 6.40399C398.773 6.70146 397.782 7.14766 396.84 7.7426C395.947 8.33754 395.203 9.13079 394.658 10.0728C394.113 11.0643 393.865 12.155 393.865 13.4937C393.865 14.4852 394.014 15.3776 394.361 16.1709C394.658 16.9641 395.203 17.6582 395.898 18.3027C396.592 18.9472 397.583 19.5422 398.823 20.0875C400.062 20.6329 401.55 21.1783 403.285 21.7236C405.02 22.269 406.706 22.8639 408.292 23.5084C409.928 24.1529 411.366 24.9462 412.605 25.8882C413.845 26.8302 414.836 28.0696 415.58 29.5074C416.324 30.9451 416.671 32.7795 416.671 34.961C416.671 37.1424 416.225 39.1255 415.332 40.7616C414.44 42.3977 413.3 43.7363 411.812 44.827C410.374 45.9177 408.689 46.711 406.805 47.2067C404.921 47.7025 402.938 48 400.955 48C399.666 48 398.327 47.9008 397.038 47.6529C395.749 47.4051 394.46 47.058 393.27 46.5622C392.08 46.0664 390.94 45.4715 389.899 44.6783C388.858 43.885 387.916 42.943 387.172 41.8027L391.733 38.0844C392.725 39.7205 394.063 40.9599 395.798 41.8027C397.534 42.6456 399.368 43.0422 401.302 43.0422C402.442 43.0422 403.582 42.8934 404.723 42.5464C405.863 42.1994 406.904 41.7036 407.846 41.0591C408.788 40.4145 409.532 39.6213 410.127 38.6297C410.721 37.6382 411.019 36.5475 411.019 35.308C411.019 33.9198 410.771 32.7795 410.325 31.9367C409.879 31.0939 409.135 30.3502 408.193 29.7057C407.201 29.0612 406.012 28.5158 404.524 28.02C403.037 27.5243 401.351 26.9293 399.368 26.2352C397.782 25.7394 396.294 25.1445 394.956 24.5C393.617 23.8555 392.427 23.0622 391.436 22.1202C390.444 21.1783 389.651 20.038 389.105 18.6994C388.56 17.3607 388.263 15.7742 388.263 13.9399C388.263 11.808 388.659 9.92404 389.552 8.33754C390.394 6.75104 391.535 5.41243 392.972 4.32171C394.41 3.23099 395.997 2.43775 397.831 1.89239C399.616 1.34703 401.549 1.04956 403.533 1.04956C406.061 1.04956 408.342 1.44619 410.424 2.23944C412.506 3.03269 414.39 4.37129 416.026 6.30484L411.663 10.0728H411.515Z" fill="white" stroke="white" stroke-width="0.25" stroke-miterlimit="10"/>
<path d="M461.681 7.09792H446.907V46.8595H441.602V7.09792H426.828V2.1897H461.632V7.09792H461.681Z" fill="white" stroke="white" stroke-width="0.25" stroke-miterlimit="10"/>
</svg>
