<svg width="59" height="48" viewBox="0 0 59 48" fill="none" xmlns="http://www.w3.org/2000/svg">
<path d="M58.5479 41.0594C58.7624 40.4369 58.8911 39.793 58.9341 39.1706C59.7064 32.6243 53.4418 31.1218 53.3346 31.0789C50.9532 30.2419 48.5718 30.0058 48.3787 29.9843C56.5312 28.396 55.909 22.9229 55.909 22.9229C56.0807 16.3766 49.623 14.9385 45.5468 15.0244C39.3037 15.1317 36.5576 15.0244 36.5576 15.0244C19.7162 14.5951 2.91774 2.08198 0.32181 0.0429676C0.171632 -0.064349 0 0.0429676 0 0.214674C0.836705 9.01463 4.39806 14.08 15.8116 15.518C26.4313 16.8487 29.9497 20.1756 30.8508 21.2916C30.9152 21.356 30.8294 21.4634 30.7435 21.399C27.8258 19.5317 21.5183 17.7717 15.0178 17.1922C6.43619 16.0331 6.54346 15.0673 6.07147 15.0244C5.98566 15.0244 5.9213 15.0673 5.9213 15.1531C5.85693 15.5609 5.9213 16.9131 8.60304 19.5102C11.907 22.7082 17.5493 23.2233 23.0845 23.438C27.3324 23.6097 29.7567 24.8975 30.6363 25.4985C30.7221 25.5628 30.6577 25.7131 30.5505 25.6702C29.1989 25.3697 25.1011 24.5541 20.7031 24.7687C15.8545 25.0048 14.2025 24.318 13.6018 24.3609C13.4731 24.3609 13.4087 24.5326 13.4945 24.6399C16.5839 28.9755 23.2346 29.2545 27.3324 28.0097C30.8079 26.958 33.5969 28.2672 34.4551 28.7609C34.5409 28.8038 34.5194 28.9541 34.4122 28.9755C33.2107 29.1901 28.9629 30.2204 29.0701 34.5131C29.1774 38.076 31.6232 38.5267 32.7602 38.5482C32.8889 38.5482 32.9533 38.3764 32.846 38.2906C32.6959 38.1833 32.5457 38.076 32.4169 37.9472C31.4086 36.8955 31.3872 35.0282 32.3955 33.9765C33.318 33.0321 34.6696 32.7745 35.1416 32.7101C35.2274 32.7101 35.3132 32.7745 35.3132 32.8604C35.2703 34.1482 35.0129 35.436 34.7125 36.5735C33.5111 41.0164 29.5636 44.1715 24.9724 44.3003H24.9295C24.715 44.3003 24.5648 44.1286 24.5648 43.9354V30.2419C24.5648 30.0916 24.4361 29.9843 24.2859 30.0058C20.2096 30.757 17.0559 29.2975 16.4337 28.997C16.3694 28.9755 16.3265 28.997 16.3265 29.0614L16.4766 42.9696C16.4766 43.1413 16.305 43.2486 16.1548 43.1842C8.81758 40.394 6.99399 35.3716 6.65073 32.8175C6.65073 32.6672 6.41474 32.6887 6.39328 32.8175C6.07147 37.4535 8.56013 40.995 8.56013 40.995C15.6399 51.3188 32.6959 46.833 32.6959 46.8115C35.2274 47.3481 37.523 47.6915 39.6684 47.8632C39.6684 47.8632 48.0783 48.7432 53.9353 46.0389C54.6218 45.7384 55.2654 45.352 55.8018 44.9657C57.2392 43.914 58.0974 42.4974 58.5479 41.0594C58.5479 41.0594 58.5479 41.0594 58.5479 41.0379V41.0594ZM38.2095 17.8575H44.3883C44.3883 17.8575 48.6791 17.8575 49.9234 21.5492C50.9317 25.3911 46.2118 27.3443 43.9377 27.4302C43.7446 27.4302 43.573 27.3228 43.5301 27.1297C43.2512 25.8633 41.9425 20.8838 38.1022 18.2009C37.9521 18.0936 38.0164 17.879 38.2095 17.879V17.8575ZM38.4455 43.5706C44.0235 39.2779 43.8734 33.5043 43.8948 32.0662C43.8948 31.8945 44.045 31.7657 44.1952 31.7657C49.2369 31.8731 50.9103 34.6418 50.9103 34.6633C53.2058 38.2262 50.803 40.716 50.803 40.716C48.2071 44.4935 40.8269 44.3647 38.5742 44.1072C38.3168 44.0857 38.231 43.7423 38.4241 43.592L38.4455 43.5706Z" fill="#258794"/>
</svg>
